<svg width="1723" height="754" viewBox="0 0 1723 754" fill="none" xmlns="http://www.w3.org/2000/svg">
<rect width="1723" height="754" fill="#D9D9D9"/>
<path d="M749.232 357.896H745.008V377H735.552V357.896H732.624V350.072H735.552V349.832C735.552 346.376 736.56 343.736 738.576 341.912C740.624 340.056 743.552 339.128 747.36 339.128C748.128 339.128 748.72 339.144 749.136 339.176V347.192C748.88 347.16 748.528 347.144 748.08 347.144C747.056 347.144 746.304 347.384 745.824 347.864C745.344 348.312 745.072 349.048 745.008 350.072H749.232V357.896ZM765.122 377.336C762.434 377.336 760.018 376.776 757.874 375.656C755.762 374.536 754.098 372.936 752.882 370.856C751.666 368.776 751.058 366.328 751.058 363.512C751.058 360.728 751.666 358.296 752.882 356.216C754.13 354.136 755.81 352.536 757.922 351.416C760.066 350.296 762.482 349.736 765.17 349.736C767.858 349.736 770.258 350.296 772.37 351.416C774.514 352.536 776.194 354.136 777.41 356.216C778.658 358.296 779.282 360.728 779.282 363.512C779.282 366.296 778.658 368.744 777.41 370.856C776.194 372.936 774.514 374.536 772.37 375.656C770.226 376.776 767.81 377.336 765.122 377.336ZM765.122 369.176C766.434 369.176 767.522 368.696 768.386 367.736C769.282 366.744 769.73 365.336 769.73 363.512C769.73 361.688 769.282 360.296 768.386 359.336C767.522 358.376 766.45 357.896 765.17 357.896C763.89 357.896 762.818 358.376 761.954 359.336C761.09 360.296 760.658 361.688 760.658 363.512C760.658 365.368 761.074 366.776 761.906 367.736C762.738 368.696 763.81 369.176 765.122 369.176ZM798.998 368.984V377H794.918C788.038 377 784.598 373.592 784.598 366.776V357.896H781.286V350.072H784.598V343.544H794.054V350.072H798.95V357.896H794.054V366.92C794.054 367.656 794.214 368.184 794.534 368.504C794.886 368.824 795.462 368.984 796.262 368.984H798.998ZM815.841 377.336C813.153 377.336 810.737 376.776 808.593 375.656C806.481 374.536 804.817 372.936 803.601 370.856C802.385 368.776 801.777 366.328 801.777 363.512C801.777 360.728 802.385 358.296 803.601 356.216C804.849 354.136 806.529 352.536 808.641 351.416C810.785 350.296 813.201 349.736 815.889 349.736C818.577 349.736 820.977 350.296 823.089 351.416C825.233 352.536 826.913 354.136 828.129 356.216C829.377 358.296 830.001 360.728 830.001 363.512C830.001 366.296 829.377 368.744 828.129 370.856C826.913 372.936 825.233 374.536 823.089 375.656C820.945 376.776 818.529 377.336 815.841 377.336ZM815.841 369.176C817.153 369.176 818.241 368.696 819.105 367.736C820.001 366.744 820.449 365.336 820.449 363.512C820.449 361.688 820.001 360.296 819.105 359.336C818.241 358.376 817.169 357.896 815.889 357.896C814.609 357.896 813.537 358.376 812.673 359.336C811.809 360.296 811.377 361.688 811.377 363.512C811.377 365.368 811.793 366.776 812.625 367.736C813.457 368.696 814.529 369.176 815.841 369.176ZM841.48 363.512C841.48 360.728 841.976 358.296 842.968 356.216C843.992 354.136 845.384 352.536 847.144 351.416C848.904 350.296 850.856 349.736 853 349.736C854.728 349.736 856.264 350.104 857.608 350.84C858.984 351.544 860.056 352.52 860.824 353.768V341.48H870.28V377H860.824V373.256C860.088 374.504 859.048 375.496 857.704 376.232C856.36 376.968 854.776 377.336 852.952 377.336C850.808 377.336 848.856 376.776 847.096 375.656C845.368 374.536 843.992 372.936 842.968 370.856C841.976 368.744 841.48 366.296 841.48 363.512ZM860.872 363.512C860.872 361.784 860.392 360.424 859.432 359.432C858.504 358.44 857.352 357.944 855.976 357.944C854.568 357.944 853.4 358.44 852.472 359.432C851.544 360.392 851.08 361.752 851.08 363.512C851.08 365.24 851.544 366.616 852.472 367.64C853.4 368.632 854.568 369.128 855.976 369.128C857.352 369.128 858.504 368.632 859.432 367.64C860.392 366.648 860.872 365.272 860.872 363.512ZM874.105 363.512C874.105 360.728 874.601 358.296 875.593 356.216C876.617 354.136 877.993 352.536 879.721 351.416C881.481 350.296 883.433 349.736 885.577 349.736C887.433 349.736 889.033 350.104 890.377 350.84C891.721 351.576 892.761 352.568 893.497 353.816V350.072H902.905V377H893.497V373.256C892.761 374.504 891.705 375.496 890.329 376.232C888.985 376.968 887.401 377.336 885.577 377.336C883.433 377.336 881.481 376.776 879.721 375.656C877.993 374.536 876.617 372.936 875.593 370.856C874.601 368.744 874.105 366.296 874.105 363.512ZM893.497 363.512C893.497 361.784 893.017 360.424 892.057 359.432C891.129 358.44 889.977 357.944 888.601 357.944C887.193 357.944 886.025 358.44 885.097 359.432C884.169 360.392 883.705 361.752 883.705 363.512C883.705 365.24 884.169 366.616 885.097 367.64C886.025 368.632 887.193 369.128 888.601 369.128C889.977 369.128 891.129 368.632 892.057 367.64C893.017 366.648 893.497 365.272 893.497 363.512ZM943.182 363.224C943.182 363.96 943.134 364.696 943.038 365.432H925.23C925.326 366.904 925.726 368.008 926.43 368.744C927.166 369.448 928.094 369.8 929.214 369.8C930.782 369.8 931.902 369.096 932.574 367.688H942.606C942.19 369.544 941.374 371.208 940.158 372.68C938.974 374.12 937.47 375.256 935.646 376.088C933.822 376.92 931.806 377.336 929.598 377.336C926.942 377.336 924.574 376.776 922.494 375.656C920.446 374.536 918.83 372.936 917.646 370.856C916.494 368.776 915.918 366.328 915.918 363.512C915.918 360.696 916.494 358.264 917.646 356.216C918.798 354.136 920.398 352.536 922.446 351.416C924.526 350.296 926.91 349.736 929.598 349.736C932.254 349.736 934.606 350.28 936.654 351.368C938.702 352.456 940.302 354.024 941.454 356.072C942.606 358.088 943.182 360.472 943.182 363.224ZM933.582 360.872C933.582 359.72 933.198 358.824 932.43 358.184C931.662 357.512 930.702 357.176 929.55 357.176C928.398 357.176 927.454 357.496 926.718 358.136C925.982 358.744 925.502 359.656 925.278 360.872H933.582ZM945.496 363.656C945.496 361 946.04 358.632 947.128 356.552C948.248 354.44 949.72 352.792 951.544 351.608C953.4 350.424 955.416 349.832 957.592 349.832C960.728 349.832 963.16 350.824 964.888 352.808V350.072H974.296V389.864H964.888V373.832C962.904 376.168 960.456 377.336 957.544 377.336C955.368 377.336 953.352 376.76 951.496 375.608C949.672 374.456 948.216 372.84 947.128 370.76C946.04 368.68 945.496 366.312 945.496 363.656ZM964.888 363.512C964.888 361.72 964.376 360.36 963.352 359.432C962.36 358.472 961.24 357.992 959.992 357.992C958.744 357.992 957.608 358.488 956.584 359.48C955.592 360.44 955.096 361.832 955.096 363.656C955.096 365.48 955.592 366.856 956.584 367.784C957.576 368.68 958.712 369.128 959.992 369.128C961.24 369.128 962.36 368.648 963.352 367.688C964.376 366.728 964.888 365.336 964.888 363.512ZM1007.21 350.072V377H997.753V373.16C996.953 374.376 995.849 375.368 994.441 376.136C993.033 376.872 991.417 377.24 989.593 377.24C986.457 377.24 983.977 376.216 982.153 374.168C980.361 372.088 979.465 369.272 979.465 365.72V350.072H988.825V364.52C988.825 366.056 989.225 367.272 990.025 368.168C990.857 369.032 991.945 369.464 993.289 369.464C994.665 369.464 995.753 369.032 996.553 368.168C997.353 367.272 997.753 366.056 997.753 364.52V350.072H1007.21ZM1017.32 347.576C1015.65 347.576 1014.31 347.128 1013.28 346.232C1012.29 345.304 1011.8 344.152 1011.8 342.776C1011.8 341.368 1012.29 340.2 1013.28 339.272C1014.31 338.344 1015.65 337.88 1017.32 337.88C1018.95 337.88 1020.26 338.344 1021.25 339.272C1022.28 340.2 1022.79 341.368 1022.79 342.776C1022.79 344.152 1022.28 345.304 1021.25 346.232C1020.26 347.128 1018.95 347.576 1017.32 347.576ZM1021.97 350.072V377H1012.56V350.072H1021.97ZM1036.74 353.816C1037.47 352.568 1038.51 351.576 1039.86 350.84C1041.2 350.104 1042.78 349.736 1044.61 349.736C1046.75 349.736 1048.69 350.296 1050.42 351.416C1052.18 352.536 1053.55 354.136 1054.54 356.216C1055.57 358.296 1056.08 360.728 1056.08 363.512C1056.08 366.296 1055.57 368.744 1054.54 370.856C1053.55 372.936 1052.18 374.536 1050.42 375.656C1048.69 376.776 1046.75 377.336 1044.61 377.336C1042.78 377.336 1041.2 376.968 1039.86 376.232C1038.54 375.496 1037.5 374.504 1036.74 373.256V389.864H1027.33V350.072H1036.74V353.816ZM1046.53 363.512C1046.53 361.752 1046.05 360.392 1045.09 359.432C1044.16 358.44 1043.01 357.944 1041.63 357.944C1040.26 357.944 1039.09 358.44 1038.13 359.432C1037.2 360.424 1036.74 361.784 1036.74 363.512C1036.74 365.272 1037.2 366.648 1038.13 367.64C1039.09 368.632 1040.26 369.128 1041.63 369.128C1043.01 369.128 1044.16 368.632 1045.09 367.64C1046.05 366.616 1046.53 365.24 1046.53 363.512ZM1085.68 363.224C1085.68 363.96 1085.63 364.696 1085.54 365.432H1067.73C1067.83 366.904 1068.23 368.008 1068.93 368.744C1069.67 369.448 1070.59 369.8 1071.71 369.8C1073.28 369.8 1074.4 369.096 1075.07 367.688H1085.11C1084.69 369.544 1083.87 371.208 1082.66 372.68C1081.47 374.12 1079.97 375.256 1078.15 376.088C1076.32 376.92 1074.31 377.336 1072.1 377.336C1069.44 377.336 1067.07 376.776 1064.99 375.656C1062.95 374.536 1061.33 372.936 1060.15 370.856C1058.99 368.776 1058.42 366.328 1058.42 363.512C1058.42 360.696 1058.99 358.264 1060.15 356.216C1061.3 354.136 1062.9 352.536 1064.95 351.416C1067.03 350.296 1069.41 349.736 1072.1 349.736C1074.75 349.736 1077.11 350.28 1079.15 351.368C1081.2 352.456 1082.8 354.024 1083.95 356.072C1085.11 358.088 1085.68 360.472 1085.68 363.224ZM1076.08 360.872C1076.08 359.72 1075.7 358.824 1074.93 358.184C1074.16 357.512 1073.2 357.176 1072.05 357.176C1070.9 357.176 1069.95 357.496 1069.22 358.136C1068.48 358.744 1068 359.656 1067.78 360.872H1076.08Z" fill="black"/>
</svg>
