<svg width="858" height="1072" viewBox="0 0 858 1072" fill="none" xmlns="http://www.w3.org/2000/svg"> <path d="M346.45 806.042H264.125L235.07 922.33H157.588L133.375 1058H796.813L758.072 922.33H661.22L632.164 806.042H525.626M346.45 806.042V374.805H157.588L133.375 306.97H51.0505C31.6801 298.894 -1.2497 277.898 21.9948 258.516C45.2394 239.135 105.933 234.29 133.375 234.29H346.45V180.991C341.607 135.767 341.607 42.4137 380.348 30.7848C428.774 16.2487 467.515 1.71267 496.571 30.7848C525.626 59.8569 520.784 156.764 525.626 180.991C529.501 200.372 527.241 224.599 525.626 234.29H758.072C787.935 234.29 846.692 239.135 842.817 258.516C838.943 277.898 810.533 298.894 796.813 306.97H699.96L680.59 374.805H525.626V786.66V806.042M346.45 806.042H525.626" stroke="url(#paint0_linear_2_10)" stroke-width="28"/> <defs> <linearGradient id="paint0_linear_2_10" x1="428.5" y1="14" x2="-511" y2="1836" gradientUnits="userSpaceOnUse"> <stop stop-color="#F17721"/> <stop offset="1" stop-color="#EFE708"/> </linearGradient> </defs> </svg>